<svg xmlns="http://www.w3.org/2000/svg" width="311" height="534.221" viewBox="0 0 311 534.221">
    <defs>
        <style>
            .cls-1{fill:#18285a;opacity:.59}
        </style>
    </defs>
    <path id="Key" d="M167.843 534.221h-25.322l-23.742-56.049-11.519-43.787 11.519-7.7v-21.176l-11.519-21.175v-22.457l11.519-10.909-11.519-8.983 11.519-26.951-11.519-22.458 11.519-26.309-11.519-16.891v-9.822l-53.683-30.891-.856-117.655 102.661-58.089L258.9 92.485l.856 117.654-55.234 31.253v236.78l-36.679 56.049zM158 147v22h22v-22h-22zm-27 0v22h22v-22h-22zm27-27v22h22v-22h-22zm-27 0v22h22v-22h-22zm180-30.179h-35.54L155.6 21.155 37.268 89.384H0L155.542.252l.012-.019.011.006.418-.239.418.722L311 89.819z" class="cls-1"/>
</svg>
